<svg xmlns="http://www.w3.org/2000/svg" width="104" height="62" viewBox="0 0 104 62" fill="none">
<g clip-path="url(#clip0_583_94864)">
<g clip-path="url(#clip1_583_94864)">
<rect width="104" height="62" rx="3" fill="#21A038"/>
<mask id="mask0_583_94864" style="mask-type:alpha" maskUnits="userSpaceOnUse" x="0" y="0" width="104" height="62">
<rect width="104" height="62" rx="3" fill="url(#paint0_linear_583_94864)"/>
</mask>
<g mask="url(#mask0_583_94864)">
<path d="M52.0481 33.423V37.6353H49.6337V24.1111H54.1322C58.4017 24.1111 60.2162 25.6387 60.2162 28.6915C60.2162 31.8399 58.0916 33.423 54.1322 33.423H52.0481ZM52.0481 26.3346V31.1996H54.3162C56.5569 31.1996 57.716 30.4662 57.716 28.6311C57.716 26.9698 56.708 26.3319 54.3567 26.3319L52.0481 26.3346Z" fill="white"/>
<path d="M61.4915 28.6538C62.1264 28.1772 63.2858 27.7838 64.9493 27.7838C67.7692 27.7838 69.1604 28.752 69.1604 31.2628V37.6378H67.0358V35.8984C66.5723 37.0177 65.3953 37.7916 63.8479 37.7916C61.8973 37.7916 60.7403 36.6901 60.7403 34.797C60.7403 32.5938 62.3433 31.9762 64.7172 31.9762H66.8998V31.5525C66.8998 30.1813 66.2444 29.7552 64.9493 29.7552C63.1725 29.7552 62.1493 30.4511 61.4939 31.4746L61.4915 28.6538ZM66.8974 34.2271V33.4457H64.9871C63.6539 33.4457 63.0163 33.6977 63.0163 34.5649C63.0163 35.2986 63.5554 35.7625 64.561 35.7625C66.0858 35.7625 66.8016 34.8928 66.8974 34.2271Z" fill="white"/>
<path d="M70.277 27.9769H72.7974L75.4436 34.6018L77.6059 27.9769H80.0001L76.1392 38.6603C75.2874 40.9768 74.4204 41.4986 73.1452 41.4986C72.5454 41.4986 71.8852 41.3249 71.6002 41.0753V38.9679C71.9108 39.271 72.3254 39.4442 72.7597 39.4517C73.4525 39.4517 73.9744 38.9879 74.3421 37.6873L70.277 27.9769Z" fill="white"/>
<path d="M30.8038 28.6631V31.6302L34.7354 34.0957L44.1485 27.1683C43.8163 26.4376 43.4002 25.7484 42.9085 25.1138L34.7354 31.1286L30.8038 28.6631Z" fill="white"/>
<path d="M42.6767 31.2011V31.4157C42.6794 33.1927 42.0871 34.9194 40.9941 36.3206C39.9011 37.7218 38.3704 38.7162 36.6463 39.1456C34.9223 39.575 33.1041 39.4142 31.4819 38.6893C29.8597 37.9644 28.527 36.717 27.6964 35.146C26.8658 33.575 26.5851 31.771 26.8992 30.022C27.2133 28.2727 28.104 26.6794 29.4293 25.4957C30.7546 24.3119 32.438 23.6063 34.211 23.4914C35.984 23.3764 37.7444 23.8587 39.2113 24.8615L41.2275 23.3816C39.4046 21.9081 37.1351 21.0983 34.7914 21.0851C32.4478 21.0718 30.1692 21.8558 28.3297 23.3085C26.4902 24.7612 25.1992 26.7963 24.6684 29.0795C24.1376 31.3631 24.3986 33.759 25.4087 35.8746C26.4187 37.9898 28.1177 39.6989 30.2269 40.7212C32.336 41.7434 34.7299 42.0184 37.0157 41.5005C39.3015 40.9825 41.3434 39.7025 42.8062 37.871C44.2689 36.0395 45.0658 33.7648 45.0658 31.4205C45.0656 30.7992 45.0099 30.1792 44.8995 29.5678L42.6767 31.2011Z" fill="white"/>
</g>
</g>
</g>
<defs>
<linearGradient id="paint0_linear_583_94864" x1="0" y1="0" x2="139.286" y2="68.2223" gradientUnits="userSpaceOnUse">
<stop stop-color="#715AFF"/>
<stop offset="1" stop-color="#5290FF"/>
</linearGradient>
<clipPath id="clip0_583_94864">
<rect width="104" height="62" rx="3" fill="white"/>
</clipPath>
<clipPath id="clip1_583_94864">
<rect width="104" height="62" fill="white"/>
</clipPath>
</defs>
</svg>