<svg xmlns="http://www.w3.org/2000/svg" width="104" height="62" viewBox="0 0 104 62" fill="none">
<rect width="104" height="62" rx="3" fill="white"/>
<g clip-path="url(#clip0_1000_217147)">
<path d="M78.9998 27.1338V34.6132H76.3332V29.368H73.7652V34.6132H71.0986V27.1338H78.9998Z" fill="#1C1637"/>
<path d="M69.8338 31.2999C69.8338 33.4779 67.9998 34.9148 65.5305 34.9148C62.9757 34.9148 61.1133 33.3935 61.1133 29.9455C61.1133 26.9871 63.0232 24.5484 65.851 24.5015C67.0895 24.5015 69.7504 24.4434 69.7504 24.4434L68.5517 26.6194C68.5517 26.6194 66.4313 26.6232 66.1506 26.6232C64.9311 26.6232 63.8216 27.5312 63.6661 28.773C64.3147 28.1727 65.1758 27.8238 66.2208 27.8238C68.4797 27.8238 69.8338 29.1914 69.8338 31.2999ZM67.097 31.2999C67.097 30.3225 66.4617 29.7504 65.5437 29.7504C64.5973 29.7504 63.9639 30.3357 63.9639 31.313C63.9639 32.2341 64.5992 32.9038 65.5437 32.9038C66.5319 32.9057 67.097 32.1797 67.097 31.2999Z" fill="#1C1637"/>
<path d="M58.9988 32.3524C58.9988 32.3524 58.354 32.7107 57.3924 32.7801C56.2848 32.8101 55.3005 32.1366 55.3005 30.936C55.3005 29.7654 56.171 29.0939 57.364 29.0939C58.096 29.0939 59.0652 29.5853 59.0652 29.5853C59.0652 29.5853 59.7745 28.3266 60.1406 27.7C59.4692 27.2067 58.5721 26.9365 57.5309 26.9365C54.9022 26.9365 52.8652 28.5949 52.8652 30.9229C52.8652 33.2809 54.7789 34.8999 57.5309 34.8511C58.3009 34.823 59.3611 34.5622 60.0078 34.1608L58.9988 32.3524Z" fill="#1C1637"/>
<path d="M25 22.5303L28.687 29.0248V32.9849L25.0076 39.4662L25 22.5303Z" fill="#5B57A2"/>
<path d="M39.1484 26.661L42.6002 24.575L49.6651 24.5693L39.1484 30.9231V26.661Z" fill="#D90751"/>
<path d="M39.1298 22.4926L39.1487 31.09L35.4561 28.852V16L39.1298 22.4926Z" fill="#FAB718"/>
<path d="M49.6653 24.5693L42.6005 24.5749L39.1298 22.4926L35.4561 16L49.6653 24.5693Z" fill="#ED6F26"/>
<path d="M39.1487 39.5018V35.3297L35.4561 33.1367V46L39.1487 39.5018Z" fill="#63B22F"/>
<path d="M42.5909 37.4346L28.687 29.0248L25 22.5303L49.6501 37.4271L42.5909 37.4346Z" fill="#1487C9"/>
<path d="M35.4561 45.9998L39.1487 39.5015L42.591 37.4343L49.6502 37.4268L35.4561 45.9998Z" fill="#017F36"/>
<path d="M25.0078 39.4658L35.4846 33.1364L31.9607 31.0054L28.6872 32.9845L25.0078 39.4658Z" fill="#984995"/>
</g>
<defs>
<clipPath id="clip0_1000_217147">
<rect width="54" height="30" fill="white" transform="translate(25 16)"/>
</clipPath>
</defs>
</svg>