<svg xmlns="http://www.w3.org/2000/svg" width="72" height="30" viewBox="0 0 72 30" fill="none">
<g clip-path="url(#clip0_772_1596)">
<path d="M56.7487 0H15.2513C7.1044 0 0.5 6.71573 0.5 15C0.5 23.2843 7.1044 30 15.2513 30H56.7487C64.8956 30 71.5 23.2843 71.5 15C71.5 6.71573 64.8956 0 56.7487 0Z" fill="#303030"/>
<path d="M36.9828 10.5569H31.0957V20.118H33.9592V17.546H36.9805C37.6905 17.546 38.382 17.5248 39.055 17.3053C40.3591 16.883 41.3267 15.6985 41.3267 14.0916C41.3267 12.4847 40.3777 11.319 39.0944 10.8589C38.3844 10.597 37.7114 10.5569 36.9805 10.5569H36.9828ZM33.9615 15.2973V12.8669H36.5697C37.122 12.8669 37.4399 12.9283 37.6952 13.0274C38.15 13.2091 38.3658 13.6291 38.3658 14.0727C38.3658 14.5541 38.1082 15.0165 37.6163 15.177C37.3796 15.2572 37.1034 15.2973 36.5697 15.2973H33.9615Z" fill="white"/>
<path d="M45.434 16.6234L46.7961 12.7678H47.0142L48.3764 16.6234H45.434ZM44.7239 18.7329H49.0702L49.6225 20.118H52.841L48.989 10.5569H44.8005L40.9485 20.118H44.1879L44.7216 18.7329H44.7239Z" fill="white"/>
<path d="M59.8117 10.5569L57.4819 14.9151H57.3821L55.0314 10.5569H51.6946L55.9411 17.5861V20.118H58.9043V17.3455L62.935 10.5569H59.8117Z" fill="white"/>
<path d="M9.06714 7.72064H24.9764V15.8566C24.9764 17.9424 23.8811 19.8702 22.106 20.9132L17.0218 23.8981L11.9376 20.9132C10.1601 19.8702 9.06714 17.9424 9.06714 15.8566V7.72064Z" fill="#FFDD2D"/>
<path fill-rule="evenodd" clip-rule="evenodd" d="M13.432 12.0033V14.5328C13.7731 14.1411 14.3904 13.8768 15.0981 13.8768H15.8662V16.8192C15.8662 17.6026 15.6574 18.2869 15.3464 18.6645H18.6902C18.3816 18.2869 18.1728 17.6026 18.1728 16.8216V13.8792H18.9408C19.6486 13.8792 20.2682 14.1435 20.607 14.5352V12.0057H13.4297L13.432 12.0033Z" fill="#333333"/>
</g>
<defs>
<clipPath id="clip0_772_1596">
<rect width="71" height="30" fill="white" transform="translate(0.5)"/>
</clipPath>
</defs>
</svg>