<svg xmlns="http://www.w3.org/2000/svg" width="104" height="62" viewBox="0 0 104 62" fill="none">
<rect width="104" height="62" rx="3" fill="white"/>
<g clip-path="url(#clip0_1000_217164)">
<path d="M79.2558 31.0461C79.2558 29.0836 77.7708 27.4961 75.6733 27.4961C73.6173 27.4961 72.1533 29.0226 72.1533 31.1201C72.1533 33.2281 73.6588 34.7651 75.8188 34.7651C77.1893 34.7651 78.3418 34.1521 79.0583 32.9061L77.6048 32.2311C77.2623 32.8541 76.5143 33.2591 75.8188 33.2591C74.9363 33.2591 73.9188 32.5946 73.8563 31.6706H79.2038C79.2379 31.4642 79.2553 31.2553 79.2558 31.0461ZM73.8873 30.4461C74.0123 29.5116 74.6558 28.8991 75.6838 28.8991C76.7013 28.8991 77.3243 29.4991 77.4073 30.4461H73.8873Z" fill="black"/>
<path d="M59.2397 27.4946C57.1317 27.4946 55.6367 29.0111 55.6367 31.1501C55.6367 33.2681 57.1317 34.7636 59.2607 34.7636C61.3997 34.7636 62.8947 33.2681 62.8947 31.1811C62.8947 29.0316 61.3582 27.4946 59.2397 27.4946ZM59.2607 33.1746C58.2012 33.1746 57.5472 32.3856 57.5472 31.1601C57.5472 29.9141 58.2117 29.0626 59.2607 29.0626C60.3197 29.0626 60.9842 29.9036 60.9842 31.1601C60.9842 32.3961 60.3302 33.1746 59.2607 33.1746Z" fill="black"/>
<path d="M51.7334 27.4967C50.8699 27.4967 50.2194 27.7917 49.5689 28.5232H49.3554C48.9184 27.8627 48.2054 27.4967 47.4054 27.4967C47.0059 27.4928 46.6113 27.5838 46.2539 27.7623C45.8966 27.9408 45.5867 28.2015 45.3499 28.5232H45.1364L45.1259 28.5132V27.6392H43.3389V34.6112H45.2699V31.0232C45.2699 29.8647 45.7579 29.1837 46.6014 29.1837C47.3839 29.1837 47.8919 29.7632 47.8919 30.6472V34.6112H49.8329V31.0232C49.8329 29.8732 50.3209 29.1837 51.1749 29.1837C51.9469 29.1837 52.4449 29.7632 52.4449 30.6577V34.6112H54.3864V30.4237C54.3864 28.6047 53.4104 27.4967 51.7334 27.4967Z" fill="black"/>
<path d="M83.55 32.1932H83.412C83.412 32.0692 82.57 29.8612 82.018 28.4932L81.673 27.6377H79.7275L82.4875 34.6342L81.4 37.3002H83.332L87.3065 27.6402H85.36L85.0425 28.3717L83.966 31.0352C83.6625 31.7792 83.538 32.1242 83.55 32.1932Z" fill="black"/>
<path d="M68.2503 27.4966C67.3863 27.4966 66.6443 27.8726 66.1463 28.5436H65.9428L65.9228 28.5336V27.6391H64.1348V34.6111H66.0658V31.0436C66.0658 29.9056 66.6158 29.1936 67.5193 29.1936C68.3628 29.1936 68.9828 29.8236 68.9828 30.8196V34.6106H70.9138V30.4036C70.9138 28.6961 69.7958 27.4966 68.2503 27.4966Z" fill="black"/>
<path d="M30.2247 23.5C26.0527 23.5 22.7002 26.875 22.7002 31C22.7002 35.159 26.0857 38.5 30.2237 38.5C34.3617 38.5 37.7502 35.125 37.7502 31C37.7502 26.875 34.3627 23.5 30.2247 23.5ZM30.2247 33.7955C28.6857 33.7955 27.4207 32.534 27.4207 31C27.4207 29.466 28.6857 28.2045 30.2247 28.2045C31.7637 28.2045 33.0292 29.466 33.0292 31C32.9947 32.534 31.7637 33.7955 30.2247 33.7955Z" fill="#8B3FFD"/>
<path d="M22.7003 25.6792V36.5882H20.0343L16.6143 25.6792H22.7003Z" fill="#8B3FFD"/>
</g>
<defs>
<clipPath id="clip0_1000_217164">
<rect width="72" height="16" fill="white" transform="translate(16 23)"/>
</clipPath>
</defs>
</svg>